<?xml version="1.0" encoding="utf-8"?>
<!-- Generator: Adobe Illustrator 16.0.3, SVG Export Plug-In . SVG Version: 6.00 Build 0)  -->
<!DOCTYPE svg PUBLIC "-//W3C//DTD SVG 1.1//EN" "http://www.w3.org/Graphics/SVG/1.1/DTD/svg11.dtd">
<svg version="1.1" id="Layer_1" xmlns="http://www.w3.org/2000/svg" xmlns:xlink="http://www.w3.org/1999/xlink" x="0px" y="0px"
	 width="512px" height="512px" viewBox="0 0 512 512" enable-background="new 0 0 512 512" xml:space="preserve">
<g>
	<path id="key-8-icon" fill="#F8C621" d="M256,90c91.741,0,166,74.243,166,166c0,91.741-74.243,166-166,166
		c-91.741,0-166-74.243-166-166C90,164.258,164.243,90,256,90 M256,50C142.229,50,50,142.229,50,256c0,113.771,92.229,206,206,206
		c113.771,0,206-92.229,206-206C462,142.229,369.771,50,256,50L256,50z"/>
	<g>
		<g>
			<path fill="#F08802" d="M234.014,241.665L163,312.493V347h50v-20.357l22.105-0.158L234.979,305h21.322l21.932-21.86
				C257.908,275.955,242,260.704,234.014,241.665z"/>
			<path fill="#F08802" d="M345.936,169.988c-23.559-23.557-61.755-23.557-85.311,0c-23.561,23.56-23.561,61.753,0,85.312
				c23.558,23.56,61.752,23.56,85.31,0C369.492,231.741,369.493,193.548,345.936,169.988z M333.825,203.212
				c-5.844,5.843-15.315,5.845-21.159,0.002c-5.843-5.844-5.843-15.315,0-21.159c5.844-5.843,15.316-5.843,21.16,0
				C339.668,187.896,339.67,197.37,333.825,203.212z"/>
		</g>
	</g>
</g>
</svg>
